<?xml version="1.0" encoding="utf-8"?>
<!-- Generator: Adobe Illustrator 24.0.0, SVG Export Plug-In . SVG Version: 6.00 Build 0)  -->
<svg version="1.1" id="图层_1" xmlns="http://www.w3.org/2000/svg" xmlns:xlink="http://www.w3.org/1999/xlink" x="0px" y="0px"
	 viewBox="0 0 100 100" style="enable-background:new 0 0 100 100;" xml:space="preserve">
<style type="text/css">
	.st0{fill:#40BEC8;}
	.st1{fill:#FFFFFF;}
</style>
<circle class="st0" cx="50" cy="50" r="30"/>
<path class="st1" d="M72.4,37.9c1.9-1-1.2-4.6-5.5-4.4c-4.4,0.2-8.4,5.8-10,14.6C55,47.9,48.6,47,48.6,47v2.7l7.6,1.1l-0.7,4.3
	L47.1,54v2.6l7.9,1.1c-1,5.5-2.4,11.3-3.7,13.6c-0.9,1.7-2.8,3.1-3.6,3c-1.2-0.1-2.5-4.7-4.6-3.4c-2,1.3,1.1,4.4,4.6,4.5
	c3.4,0.1,6.2-2.2,7.7-5c1.8-3.1,2.9-7.8,3.8-12.3c1.5,0.2,8.4,1.1,8.4,1.1l0.1-2.5l-8-1.1l0.8-4.3l8.3,1v-2.5l-7.8-1
	c0.8-4,2.1-9.6,3.1-11.3c0.9-1.6,2.9-3.3,4-2.9S70.2,39.1,72.4,37.9z"/>
<path class="st1" d="M51,36.5c-0.3,0-1.9,0-2.4,0c-0.4,0-0.9,0-1.4,0s-0.4,0-0.8,0V37c0.5,0,0.8,0.1,1,0.3c0.3,0.3,0.4,0.6,0.5,1.1
	c0,0.5-0.1,1.2-0.4,2.1c-0.4,0.9-3.8,9.6-3.8,9.6l-2.9-11c-0.2-0.6-0.3-1.1-0.2-1.4c0-0.3,0.2-0.5,0.5-0.6c0.2-0.1,0.4-0.1,0.6-0.1
	v-0.5c-0.3,0-0.4,0-0.8,0c-0.6,0-1.2,0-1.8,0c-0.4,0-0.8,0-1.3,0c-0.4,0-0.8,0-1.1,0V37c0.2,0,0.5,0.1,0.7,0.3
	c0.3,0.2,0.5,0.6,0.7,1.3l0.7,2l-3.7,9.6c-0.5-2-1.8-6.8-2.4-8.9c-0.9-3.6-2.5-4.7-4.4-4.7c-2,0-3.2,2-2.1,2.6
	c1.3,0.6,1.4-1.6,2-1.7c0.8,0,1,0.8,1.2,1.4l4.3,15.4h1.8l4.2-10.7l2.7,10.7l0,0h1.8c0,0,5.2-14.3,5.5-15.1c0.3-0.7,0.5-1.2,0.9-1.5
	s0.7-0.5,1-0.6v-0.5C51.6,36.5,51.3,36.5,51,36.5z"/>
<g>
	<path class="st1" d="M33.2,33.3c-0.1,0-0.3-0.1-0.4-0.2c-0.2-0.2-0.2-0.5,0-0.7c4.6-4.5,10.7-6.9,17.1-6.9c4.4,0,8.7,1.2,12.4,3.4
		c0.2,0.1,0.3,0.4,0.2,0.7c-0.1,0.2-0.4,0.3-0.7,0.2c-3.6-2.1-7.7-3.2-11.9-3.2c-6.1,0-11.9,2.4-16.4,6.6
		C33.5,33.3,33.4,33.3,33.2,33.3z"/>
	<path class="st1" d="M36.9,70.7c-0.1,0-0.2,0-0.3-0.1c-7-4.5-11.2-12.2-11.2-20.6c0-2.3,0.3-4.5,0.9-6.7c0.1-0.3,0.3-0.4,0.6-0.3
		c0.3,0.1,0.4,0.4,0.3,0.6c-0.6,2.1-0.9,4.3-0.9,6.4c0,8,4,15.4,10.7,19.7c0.2,0.2,0.3,0.5,0.1,0.7C37.2,70.6,37.1,70.7,36.9,70.7z"
		/>
	<path class="st1" d="M59.8,72.4c-0.2,0-0.4-0.1-0.5-0.3c-0.1-0.3,0-0.5,0.2-0.7c8.4-3.8,13.8-12.2,13.8-21.4c0-2.4-0.4-4.7-1.1-7
		c-0.1-0.3,0.1-0.5,0.3-0.6c0.3-0.1,0.5,0.1,0.6,0.3c0.7,2.4,1.1,4.8,1.1,7.3C74.2,59.6,68.5,68.4,59.8,72.4
		C60,72.4,59.9,72.4,59.8,72.4z"/>
</g>
</svg>
